<svg width="18" height="18" viewBox="0 0 155 155" fill="none" xmlns="http://www.w3.org/2000/svg">
<path fill-rule="evenodd" clip-rule="evenodd" d="M86.0637 30.2986L55.9434 0L25.4597 30.664L41.1412 46.438L0 57.5269L11.1577 99.4145L32.5788 93.6408L21.5551 135.025L63.1963 146.249L68.936 124.701L99.0536 154.997L129.537 124.333L113.856 108.56L155 97.4698L143.842 55.5822L122.422 61.3556L133.446 19.9713L91.8046 8.74759L86.0637 30.2986ZM33.5791 93.3712L74.3541 104.362L69.2042 123.695L99.0536 93.669L113.128 107.827L102.201 66.8058L121.421 61.6252L80.6468 50.6352L85.798 31.2962L55.9434 61.3277L41.8735 47.1745L52.7991 88.1909L33.5791 93.3712Z" fill="#DA3333"/>
</svg>
